<?xml version="1.0" encoding="UTF-8"?>
<svg id="Layer_1" data-name="Layer 1" xmlns="http://www.w3.org/2000/svg" viewBox="0 0 524.25 524.25">
  <defs>
    <style>
      .cls-1 {
        fill: #fff;
      }

      .cls-2 {
        fill: #005a98;
      }
    </style>
  </defs>
  <path class="cls-2" d="M502.33,315.04l-53.6,53.6-56.09,56.09-77.6,77.6c-29.23,29.22-76.61,29.22-105.83,0L21.92,315.04c-29.23-29.23-29.23-76.61,0-105.83l11.15-11.15,33.97-33.96,24.21-24.22,58.13-58.12,5.01-5.02,32.7-32.69,22.12-22.13c2.43-2.43,4.99-4.67,7.66-6.69,29.33-22.34,71.37-20.11,98.17,6.69l187.29,187.29c29.22,29.22,29.22,76.6,0,105.83Z"/>
  <g>
    <polygon class="cls-1" points="221.83 78.79 123.27 177.35 101.78 198.84 66.51 163.57 66.67 163.4 90.45 139.62 148.85 81.23 153.99 76.08 167.44 62.63 186.48 43.59 186.56 43.52 187.09 44.05 221.83 78.79"/>
    <polygon class="cls-1" points="304.17 161.13 266.46 198.84 228.75 161.13 148.85 81.23 153.99 76.08 167.44 62.63 186.48 43.59 186.56 43.52 187.09 44.05 221.83 78.79 276.07 133.03 304.17 161.13"/>
    <rect class="cls-1" x="140.4" y="175.64" width="169.78" height="53.33" transform="translate(-77.06 218.56) rotate(-45)"/>
    <rect class="cls-1" x="181.57" y="216.81" width="169.78" height="53.33" transform="translate(250.21 -117.11) rotate(45)"/>
  </g>
  <path class="cls-1" d="M239.62,69.69c-2.15,6.47-5.68,12.11-10.17,16.72-7.55,7.76-17.83,12.63-28.9,13.66-6.49,.62-13.25-.08-19.88-2.28-11.53-3.84-20.66-11.52-26.28-21.05-.15-.22-.27-.44-.4-.66l13.45-13.45,19.04-19.04,.08-.07,.53,.53,22.12-22.13c2.43-2.43,4.99-4.67,7.66-6.69,19.72,10.53,29.76,33.35,22.75,54.46Z"/>
  <ellipse class="cls-1" cx="162.72" cy="264.87" rx="45.24" ry="47.09" transform="translate(-139.93 335.85) rotate(-71.63)"/>
  <path class="cls-1" d="M121.53,197.6c-7.87,23.71-34.26,36.29-58.95,28.09-14.09-4.68-24.58-15.12-29.51-27.63l33.97-33.96-.53-.53,.16-.17,23.78-23.78c.21,.07,.43,.14,.64,.21,.05,.02,.11,.04,.16,.05,17.59,5.91,29.54,20.8,32.02,37.47,.99,6.62,.49,13.52-1.74,20.25Z"/>
  <path class="cls-1" d="M448.73,368.64l-56.09,56.09c-1-.27-2.01-.57-3.01-.9-24.68-8.2-38.31-34.06-30.44-57.77,7.88-23.71,34.27-36.29,58.95-28.1,15.22,5.06,26.24,16.83,30.59,30.68Z"/>
  <ellipse class="cls-1" cx="313.39" cy="161.43" rx="45.24" ry="47.09" transform="translate(61.44 407.99) rotate(-71.63)"/>
</svg>