<?xml version="1.0" encoding="UTF-8"?>
<svg id="Layer_1" data-name="Layer 1" xmlns="http://www.w3.org/2000/svg" viewBox="0 0 580.31 580.31">
  <defs>
    <style>
      .cls-1 {
        fill: #fff;
      }

      .cls-2 {
        fill: #005a98;
      }
    </style>
  </defs>
  <path class="cls-2" d="M576.72,298.82l-106.38,106.39-37.71,37.71-133.82,133.81c-4.78,4.78-12.54,4.78-17.32,0L3.58,298.82c-4.78-4.78-4.78-12.54,0-17.32l92.65-92.64,.16-.17,82.18-82.17,18.59-18.6,19.04-19.04,.08-.07L281.5,3.59c4.78-4.78,12.54-4.78,17.32,0l277.91,277.91c4.78,4.78,4.78,12.54,0,17.32Z"/>
  <g>
    <polygon class="cls-1" points="96.39 188.69 96.23 188.86 131.5 224.13 213.84 141.79 251.55 104.08 216.28 68.81 216.2 68.88 197.16 87.92 178.57 106.52 96.39 188.69"/>
    <polygon class="cls-1" points="333.89 186.42 296.19 224.12 258.47 186.42 178.57 106.52 197.16 87.92 216.2 68.88 216.28 68.8 296.19 148.71 333.89 186.42"/>
    <rect class="cls-1" x="170.13" y="200.92" width="169.78" height="53.33" transform="translate(-86.23 246.98) rotate(-45)"/>
    <rect class="cls-1" x="211.3" y="242.09" width="169.78" height="53.33" transform="translate(276.79 -130.72) rotate(45)"/>
  </g>
  <rect class="cls-1" x="407.21" y="381.53" width="53.33" height="49.82" transform="translate(-160.32 425.84) rotate(-45)"/>
</svg>